<?xml version="1.0" encoding="UTF-8" standalone="no"?>
<!-- Created with sK1/UniConvertor (http://sk1project.org/) -->

<svg
   width="81.86348pt"
   height="94.527809pt"
   viewBox="0 0 81.863479 94.527807"
   fill-rule="evenodd"
   version="1.1"
   id="svg10"
   sodipodi:docname="icon.svg"
   inkscape:version="1.3 (0e150ed6c4, 2023-07-21)"
   xmlns:inkscape="http://www.inkscape.org/namespaces/inkscape"
   xmlns:sodipodi="http://sodipodi.sourceforge.net/DTD/sodipodi-0.dtd"
   xmlns="http://www.w3.org/2000/svg"
   xmlns:svg="http://www.w3.org/2000/svg">
  <defs
     id="defs10" />
  <sodipodi:namedview
     id="namedview10"
     pagecolor="#505050"
     bordercolor="#eeeeee"
     borderopacity="1"
     inkscape:showpageshadow="0"
     inkscape:pageopacity="0"
     inkscape:pagecheckerboard="0"
     inkscape:deskcolor="#d1d1d1"
     inkscape:document-units="pt"
     inkscape:zoom="3.9072474"
     inkscape:cx="-4.6068237"
     inkscape:cy="56.945459"
     inkscape:window-width="1920"
     inkscape:window-height="1017"
     inkscape:window-x="1192"
     inkscape:window-y="533"
     inkscape:window-maximized="1"
     inkscape:current-layer="svg10" />
  <path
     sodipodi:type="star"
     style="fill:#034efc;fill-opacity:1;stroke:none;stroke-width:0.999997;stroke-linecap:square;stroke-miterlimit:4.6;stroke-dasharray:none"
     id="path19"
     inkscape:flatsided="true"
     sodipodi:sides="6"
     sodipodi:cx="297.63867"
     sodipodi:cy="390.95508"
     sodipodi:r1="44.755501"
     sodipodi:r2="38.759399"
     sodipodi:arg1="1.5707963"
     sodipodi:arg2="2.0943951"
     inkscape:rounded="0"
     inkscape:randomized="0"
     d="m 297.63867,435.71058 -38.7594,-22.37775 0,-44.7555 38.7594,-22.37775 38.7594,22.37775 0,44.7555 z"
     transform="matrix(1.0560468,0,0,1.0560468,-273.38863,-365.60296)" />
  <path
     sodipodi:type="star"
     style="fill:#121212;fill-opacity:1;stroke:none;stroke-width:0.999997;stroke-linecap:square;stroke-miterlimit:4.6;stroke-dasharray:none"
     id="path18"
     inkscape:flatsided="true"
     sodipodi:sides="6"
     sodipodi:cx="297.63867"
     sodipodi:cy="390.95508"
     sodipodi:r1="44.755501"
     sodipodi:r2="38.759399"
     sodipodi:arg1="1.5707963"
     sodipodi:arg2="2.0943951"
     inkscape:rounded="0"
     inkscape:randomized="0"
     d="m 297.63867,435.71058 -38.7594,-22.37775 0,-44.7555 38.7594,-22.37775 38.7594,22.37775 0,44.7555 z"
     transform="translate(-256.70693,-343.69117)" />
  <path
     d="m 20.684671,30.279035 h -4.75342 v 10.00049 h 10.57325 c -0.4552,-0.91023 -0.90664,-1.82207 -1.39161,-2.71435 -1.36082,-2.50374 -2.84279,-4.93355 -4.42822,-7.28614 z"
     style="fill:#dcdfe6;fill-opacity:1;stroke:none;stroke-linecap:round;stroke-linejoin:round"
     id="path13" />
  <path
     d="m 49.801371,40.279525 c -0.49073,1.04949 -0.97974,2.09993 -1.43262,3.16993 -0.59857,1.41421 -1.16412,2.84515 -1.69482,4.29345 -0.2649,0.72292 -0.49506,1.46183 -0.74268,2.19287 -0.24846,0.73353 -0.51479,1.45874 -0.7456,2.2002 -0.46085,1.48039 -0.88541,2.97631 -1.27442,4.48681 -0.389,1.51051 -0.74243,3.03608 -1.05761,4.57471 -0.31518,1.53863 -0.59267,3.09051 -0.83203,4.65528 -0.23937,1.56476 -0.44049,3.14253 -0.60206,4.73144 -0.16156,1.58891 -0.28297,3.18922 -0.36474,4.80029 -0.0818,1.61108 -0.12305,3.2335 -0.12305,4.86475 0,0.01 0,0.0195 0,0.0293 h 10e-4 4.99804 c 0,-0.01 0,-0.0195 0,-0.0293 0,-1.545 0.0397,-3.08104 0.11719,-4.60693 0.0774,-1.52589 0.19268,-3.04198 0.3457,-4.54688 0.15303,-1.5049 0.34312,-2.99892 0.56983,-4.48096 0.22671,-1.48203 0.48957,-2.95189 0.78808,-4.40918 0.29852,-1.45728 0.63205,-2.90236 1.00049,-4.333 0.36845,-1.43065 0.77201,-2.84739 1.2085,-4.24952 0.43649,-1.40212 0.90653,-2.78989 1.40918,-4.16162 0.50265,-1.37173 1.03853,-2.72695 1.60547,-4.0664 0.56693,-1.33945 1.1651,-2.66298 1.79443,-3.96826 0.18691,-0.38767 0.3951,-0.76244 0.5874,-1.14698 z"
     style="fill:#034efc;fill-opacity:1;stroke:none;stroke-linecap:round;stroke-linejoin:round"
     id="path15" />
  <path
     d="m 26.627541,30.279035 c 0.19756,0.3165 0.40961,0.62291 0.60352,0.9419 0.79026,1.30003 1.54948,2.62086 2.27783,3.96094 0.72835,1.34008 1.42588,2.69998 2.09033,4.07812 0.16173,0.33544 0.30356,0.68191 0.46143,1.01953 h 3.87012 v 9.65625 30.31348 c 0,0.01 0,0.0195 0,0.0293 h 4.99951 10e-4 c 0,-0.01 0,-0.0195 0,-0.0293 0,-1.63124 0.0413,-3.25368 0.12305,-4.86475 0.0818,-1.61106 0.20318,-3.21138 0.36474,-4.80029 0.16157,-1.5889 0.36269,-3.16669 0.60206,-4.73144 0.23936,-1.56476 0.51685,-3.11666 0.83203,-4.65528 0.31517,-1.53862 0.66861,-3.06421 1.05761,-4.57471 0.38901,-1.51049 0.81357,-3.00642 1.27442,-4.48681 0.23081,-0.74145 0.49714,-1.46667 0.7456,-2.2002 v -9.65625 h 3.87012 5.55615 10.57325 v -10.00049 h -4.75342 -5.94287 -14.30274 z"
     style="fill:#dcdfe6;fill-opacity:1;stroke:none;stroke-linecap:round;stroke-linejoin:round"
     id="path12" />
  <path
     d="m 55.234481,30.279035 h 5.94287 c 0.022,-0.0326 0.0395,-0.0684 0.0615,-0.10107 1.46509,-2.16785 3.04771,-4.24665 4.6919,-6.27393 v -3.62548 h -3.53028 c -0.9137,1.11229 -1.8073,2.24316 -2.67041,3.39697 -0.90812,1.21398 -1.78799,2.44951 -2.63818,3.70752 -0.64158,0.94933 -1.24983,1.92259 -1.85742,2.89599 z"
     style="fill:#034efc;fill-opacity:1;stroke:none;stroke-width:0.999997;stroke-linecap:square;stroke-miterlimit:4.6"
     id="path16" />
  <path
     d="m 15.931251,20.278555 v 3.62548 c 1.64418,2.02728 3.22682,4.10609 4.6919,6.27393 0.022,0.0326 0.0395,0.0684 0.0615,0.10107 1.58543,2.35258 3.06741,4.78241 4.42822,7.28614 0.48497,0.89228 0.93641,1.80412 1.39161,2.71435 0.1923,0.38454 0.40049,0.75931 0.5874,1.14698 0.62933,1.30528 1.2275,2.62881 1.79443,3.96826 0.56693,1.33945 1.10282,2.69467 1.60547,4.0664 0.50265,1.37173 0.97269,2.7595 1.40918,4.16162 0.43649,1.40213 0.84005,2.81887 1.2085,4.24952 0.36844,1.43064 0.70197,2.87572 1.00048,4.333 0.29852,1.45729 0.56138,2.92715 0.78809,4.40918 0.22671,1.48204 0.4168,2.97606 0.56982,4.48096 0.15303,1.5049 0.26972,3.02099 0.34717,4.54688 0.0774,1.52589 0.11573,3.06193 0.11573,4.60693 v -30.31348 c -0.24763,-0.73104 -0.47778,-1.46995 -0.74268,-2.19287 -0.53071,-1.4483 -1.09625,-2.87924 -1.69482,-4.29345 -0.45289,-1.07 -0.94189,-2.12044 -1.43262,-3.16993 -0.15787,-0.33762 -0.2997,-0.68409 -0.46143,-1.01953 -0.66445,-1.37814 -1.36198,-2.73804 -2.09033,-4.07812 -0.72835,-1.34008 -1.48757,-2.66091 -2.27783,-3.96094 -0.19391,-0.31899 -0.40596,-0.6254 -0.60352,-0.9419 -0.60759,-0.9734 -1.21584,-1.94666 -1.85742,-2.89599 -0.85018,-1.258 -1.73006,-2.49354 -2.63818,-3.70752 -0.86311,-1.15381 -1.75672,-2.28468 -2.67041,-3.39697 z"
     style="fill:#034efc;fill-opacity:1;stroke:none;stroke-width:0.999997;stroke-linecap:square;stroke-miterlimit:4.6"
     id="path14" />
</svg>
